<svg xmlns:rdf="http://www.w3.org/1999/02/22-rdf-syntax-ns#" xmlns="http://www.w3.org/2000/svg" xmlns:cc="http://creativecommons.org/ns#" xmlns:xlink="http://www.w3.org/1999/xlink" xmlns:dc="http://purl.org/dc/elements/1.1/" xmlns:svg="http://www.w3.org/2000/svg" id="svg3912" viewBox="0 0 744.09 1052.4" version="1.1">
  <g id="layer1">
    <path id="path1" stroke-linejoin="round" d="m393.4 441.74c17.21-1.095 24.829-18.447 33.337-30.631 5.2859-7.5696 18.577-14.912 24.908-8.7934 8.965 8.6646-7.7624 23.608-11.243 35.674-23.183 77.875-46.296 155.78-71.16 233.14-6.5676 6.6802-25.437 6.0742-27.886-2.034 25.232-69.872 50.463-139.74 75.695-209.62-26.033 4.9431-52.11 11.93-78.77 11.611-21.055-1.3185-42.014-15.485-46.498-36.923-5.1756-17.258 0.047-37.86 15.535-48.125 16.48-12.754 44.789-13.811 57.294 4.986 9.5372 14.464 6.4128 34.464 18.521 47.502 2.8844 2.2846 6.6328 3.2533 10.268 3.2108z" fill-rule="evenodd" stroke="#efefef" stroke-linecap="round" stroke-width="2.9563" fill="#efefef"/>
  </g>
</svg>
