<svg xmlns:rdf="http://www.w3.org/1999/02/22-rdf-syntax-ns#" xmlns="http://www.w3.org/2000/svg" xmlns:cc="http://creativecommons.org/ns#" xmlns:xlink="http://www.w3.org/1999/xlink" xmlns:dc="http://purl.org/dc/elements/1.1/" xmlns:svg="http://www.w3.org/2000/svg" id="svg3912" viewBox="0 0 744.09 1052.4" version="1.1">
  <path id="path1" stroke-linejoin="round" d="m414.37 453.28c0 18.812-37.624 47.03-37.624 84.655 0 14.109 28.218 56.436 47.03 79.952-9.4061-4.703-18.812-9.4061-32.921-9.4061-28.218 0-37.624 23.515-37.624 37.624 0 9.4061 9.4061 18.812 14.109 28.218-28.218-18.812-47.03-37.624-47.03-56.436 0-47.03 32.122-30.57 55.637-39.976-23.515-23.515-46.231-58.788-46.231-72.897 0-9.4061 28.218-42.327 37.624-65.842v-14.109c0-14.109-9.4061-32.921-14.109-47.03 18.812 23.515 61.139 65.843 61.139 75.249z" fill-rule="evenodd" stroke="#efefef" stroke-linecap="round" stroke-width="4.703" fill="#efefef"/>
</svg>
